<mxfile host="app.diagrams.net" modified="2025-07-16" agent="APILinker Assistant" version="22.0.8">
  <diagram id="bench-04" name="Benchmarks">
    <mxGraphModel dx="1200" dy="800" grid="1" gridSize="10" guides="1" tooltips="1" connect="1" arrows="1" page="1" pageScale="1" pageWidth="1600" pageHeight="1000">
      <root>
        <mxCell id="0"/>
        <mxCell id="1" parent="0"/>

        <!-- Axes -->
        <mxCell id="xaxis" value="Records / second" style="shape=line;html=1;strokeColor=#666666;endArrow=block;endFill=1" edge="1" parent="1">
          <mxGeometry x="160" y="520" width="900" height="0" relative="0" as="geometry">
            <mxPoint x="160" y="520" as="sourcePoint"/>
            <mxPoint x="1060" y="520" as="targetPoint"/>
          </mxGeometry>
        </mxCell>
        <mxCell id="yaxis" value="Scenario" style="shape=line;html=1;strokeColor=#666666;endArrow=block;endFill=1" edge="1" parent="1">
          <mxGeometry x="160" y="160" width="0" height="360" relative="0" as="geometry">
            <mxPoint x="160" y="520" as="sourcePoint"/>
            <mxPoint x="160" y="160" as="targetPoint"/>
          </mxGeometry>
        </mxCell>

        <!-- Bars (nominal) -->
        <mxCell id="bar1" value="CrossRef→SemSch (nominal)" style="shape=rectangle;whiteSpace=wrap;html=1;fillColor=#cde9d5;strokeColor=#82b366" vertex="1" parent="1">
          <mxGeometry x="200" y="200" width="360" height="30" as="geometry"/>
        </mxCell>
        <mxCell id="bar2" value="PubMed→CSV (nominal)" style="shape=rectangle;whiteSpace=wrap;html=1;fillColor=#cde9d5;strokeColor=#82b366" vertex="1" parent="1">
          <mxGeometry x="200" y="260" width="420" height="30" as="geometry"/>
        </mxCell>
        <mxCell id="bar3" value="GitHub→GitLab (nominal)" style="shape=rectangle;whiteSpace=wrap;html=1;fillColor=#cde9d5;strokeColor=#82b366" vertex="1" parent="1">
          <mxGeometry x="200" y="320" width="300" height="30" as="geometry"/>
        </mxCell>

        <!-- Bars (fault-injected) -->
        <mxCell id="bar1f" value="CrossRef→SemSch (fault)" style="shape=rectangle;whiteSpace=wrap;html=1;fillColor=#f8cecc;strokeColor=#b85450" vertex="1" parent="1">
          <mxGeometry x="200" y="230" width="240" height="20" as="geometry"/>
        </mxCell>
        <mxCell id="bar2f" value="PubMed→CSV (fault)" style="shape=rectangle;whiteSpace=wrap;html=1;fillColor=#f8cecc;strokeColor=#b85450" vertex="1" parent="1">
          <mxGeometry x="200" y="290" width="300" height="20" as="geometry"/>
        </mxCell>
        <mxCell id="bar3f" value="GitHub→GitLab (fault)" style="shape=rectangle;whiteSpace=wrap;html=1;fillColor=#f8cecc;strokeColor=#b85450" vertex="1" parent="1">
          <mxGeometry x="200" y="350" width="200" height="20" as="geometry"/>
        </mxCell>

        <!-- Legend -->
        <mxCell id="leg1" value="Nominal" style="shape=rectangle;whiteSpace=wrap;html=1;fillColor=#cde9d5;strokeColor=#82b366" vertex="1" parent="1">
          <mxGeometry x="820" y="200" width="100" height="24" as="geometry"/>
        </mxCell>
        <mxCell id="leg2" value="Fault-injected" style="shape=rectangle;whiteSpace=wrap;html=1;fillColor=#f8cecc;strokeColor=#b85450" vertex="1" parent="1">
          <mxGeometry x="820" y="240" width="100" height="24" as="geometry"/>
        </mxCell>

      </root>
    </mxGraphModel>
  </diagram>
</mxfile>


